<svg width="16" height="16" viewBox="0 0 16 16" fill="none" xmlns="http://www.w3.org/2000/svg">
<path d="M8 15.8C12.4183 15.8 16 12.3302 16 8.05C16 3.76979 12.4183 0.3 8 0.3C3.58172 0.3 0 3.76979 0 8.05C0 12.3302 3.58172 15.8 8 15.8Z" fill="#F0F0F0"/>
<path fill-rule="evenodd" clip-rule="evenodd" d="M16 0.79H11.48V0.79468C11.4794 0.794394 11.4788 0.794108 11.4782 0.793823V15.2062C11.4825 15.2041 11.4867 15.2021 11.491 15.2H16V8.00001V0.79Z" fill="#D80027"/>
<path fill-rule="evenodd" clip-rule="evenodd" d="M4.51999 0.79H0V8.00001V15.2H4.50897C4.51324 15.2021 4.51749 15.2041 4.52176 15.2062V0.793823C4.52118 0.794108 4.52057 0.794394 4.51999 0.79468V0.79Z" fill="#D80027"/>
<path d="M9.39131 9.04348L10.7826 8.34782L10.087 8.00001V7.30435L8.69566 8.00001L9.39131 6.6087H8.69566L8 5.56523L7.30434 6.6087H6.60869L7.30434 8.00001L5.91303 7.30435V8.00001L5.21741 8.34782L6.60869 9.04348L6.26088 9.73914H7.65219V10.7826H8.34781V9.73914H9.73913L9.39131 9.04348Z" fill="#D80027"/>
</svg>
