<svg width="23" height="19" viewBox="0 0 23 19" fill="none" xmlns="http://www.w3.org/2000/svg">
<path fill-rule="evenodd" clip-rule="evenodd" d="M3.1 1H19.9C21.0592 1 22 1.9408 22 3.1V15.7C22 16.8592 21.0592 17.8 19.9 17.8H3.1C1.9408 17.8 1 16.8592 1 15.7V3.1C1 1.9408 1.9408 1 3.1 1Z" fill="#007CFF"/>
<path d="M1 6.25H22M6.775 12.55H4.15M3.1 1H19.9C21.0592 1 22 1.9408 22 3.1V15.7C22 16.8592 21.0592 17.8 19.9 17.8H3.1C1.9408 17.8 1 16.8592 1 15.7V3.1C1 1.9408 1.9408 1 3.1 1Z" stroke="#F7F9FD" stroke-width="1.5" stroke-linecap="round" stroke-linejoin="round"/>
</svg>
