<svg width="14" height="14" viewBox="0 0 14 14" fill="none" xmlns="http://www.w3.org/2000/svg">
<path d="M1.71118 12.911V10.4221H4.20004M12.911 12.2888H10.4222V9.79993M1.08897 1.71115H3.57783V4.20001M12.2888 1.09205V3.58091H9.79996M3.57783 1.80262C1.89163 2.91576 0.777864 4.82844 0.777864 6.99997C0.777676 7.31238 0.800971 7.62437 0.847552 7.93329M6.06668 0.847521C6.3756 0.80094 6.68759 0.777645 7 0.777833C9.17153 0.777833 11.0842 1.8916 12.1974 3.57779M13.1524 6.06665C13.199 6.37557 13.2223 6.68756 13.2221 6.99997C13.2221 9.1715 12.1084 11.0842 10.4222 12.1973M7.93332 13.1524C7.6244 13.199 7.31241 13.2223 7 13.2221C4.82847 13.2221 2.91579 12.1083 1.80265 10.4221" stroke="white" stroke-linecap="round" stroke-linejoin="round"/>
</svg>
