<svg width="16" height="16" viewBox="0 0 16 16" fill="none" xmlns="http://www.w3.org/2000/svg">
<rect x="0.5" y="4.87" width="15" height="6.26" fill="#FFDA44"/>
<path fill-rule="evenodd" clip-rule="evenodd" d="M15.5 5.21084V0H8H0.5V5.21091C0.499207 5.21307 0.498383 5.21524 0.497589 5.21741H0.5V5.22H15.5V5.21741H15.5024C15.5016 5.21522 15.5008 5.21303 15.5 5.21084Z" fill="#D80027"/>
<path fill-rule="evenodd" clip-rule="evenodd" d="M15.5 10.78H0.5V10.7826H0.497589C0.498383 10.7848 0.499207 10.7869 0.5 10.7891V16H8H15.5V10.7891C15.5008 10.7869 15.5016 10.7848 15.5024 10.7826H15.5V10.78Z" fill="#496E2D"/>
<path d="M7.99994 5.21741L8.69056 7.34303H10.9258L9.1176 8.65688L9.80822 10.7826L7.99994 9.46884L6.19166 10.7826L6.88241 8.65688L5.07419 7.34303H7.30931L7.99994 5.21741Z" fill="black"/>
</svg>
