<svg width="16" height="16" viewBox="0 0 16 16" fill="none" xmlns="http://www.w3.org/2000/svg">
<rect x="0.869995" width="14.42" height="14" fill="#F0F0F0"/>
<path fill-rule="evenodd" clip-rule="evenodd" d="M8.00004 0H0.790039V4.52H0.794699C0.794417 4.52058 0.794135 4.52116 0.793854 4.52175H15.2062C15.2041 4.51751 15.2021 4.51328 15.2 4.50906V0H8.00004Z" fill="black"/>
<path fill-rule="evenodd" clip-rule="evenodd" d="M7.98887 16H0.790039V11.48H0.794695C0.794415 11.4794 0.794134 11.4788 0.793854 11.4783H15.2062C15.2041 11.4825 15.2021 11.4867 15.2 11.4909V16H8.01121C8.00748 16 8.00376 16 8.00004 16C7.99631 16 7.99259 16 7.98887 16Z" fill="#496E2D"/>
<rect x="0.790009" y="5.57001" width="14.42" height="4.87" fill="#A2001D"/>
<path d="M10.4911 3.69691L9.54369 3.25963L8 6.75497L6.45632 3.25963L5.50891 3.69691L7.42541 8L5.50891 12.3031L6.45632 12.7404L8 9.24503L9.54369 12.7404L10.4911 12.3031L8.5746 8L10.4911 3.69691Z" fill="#F0F0F0"/>
<path d="M8.64347 4.10905C8.27672 3.70852 8.00001 3.47827 8.00001 3.47827C8.00001 3.47827 7.72329 3.70849 7.35654 4.10905V11.8909C7.72329 12.2915 8.00001 12.5218 8.00001 12.5218C8.00001 12.5218 8.27672 12.2915 8.64347 11.891V4.10905Z" fill="#F0F0F0"/>
<path d="M6.26086 5.60134V10.3986C6.64843 11.0853 7.12277 11.6482 7.47827 12.0214V3.97859C7.12277 4.35175 6.6484 4.91465 6.26086 5.60134V5.60134Z" fill="#A2001D"/>
<path d="M9.7391 5.60136C9.35151 4.91464 8.8772 4.35176 8.5217 3.97861V12.0214C8.87717 11.6482 9.35151 11.0853 9.7391 10.3986V5.60136Z" fill="#A2001D"/>
<path d="M9.73914 5.60135V10.3986C10.1315 9.70332 10.4348 8.88116 10.4348 8C10.4348 7.11885 10.1315 6.29666 9.73914 5.60135Z" fill="black"/>
<path d="M6.26087 5.60135V10.3986C5.86853 9.70332 5.56522 8.88116 5.56522 8C5.56522 7.11885 5.86853 6.29666 6.26087 5.60135Z" fill="black"/>
</svg>
