<svg width="20" height="19" viewBox="0 0 20 19" fill="none" xmlns="http://www.w3.org/2000/svg">
<path d="M9.5 19C14.7467 19 19 14.7467 19 9.5C19 4.25329 14.7467 0 9.5 0C4.25329 0 0 4.25329 0 9.5C0 14.7467 4.25329 19 9.5 19Z" fill="#F0F0F0"/>
<path fill-rule="evenodd" clip-rule="evenodd" d="M6.52 0H0V9.37797V18.76H6.52V18.7554C6.52059 18.7556 6.52117 18.7558 6.52176 18.756V0C6.52117 0.000217446 6.52059 0.000434946 6.52 0.000652499V0Z" fill="#6DA544"/>
<path fill-rule="evenodd" clip-rule="evenodd" d="M19.52 0H13V18.7561V18.76H19.52V9.56738C19.5212 9.50439 19.5218 9.44125 19.5218 9.37797C19.5218 9.31469 19.5212 9.25155 19.52 9.18856V0Z" fill="#6DA544"/>
</svg>
