<svg width="20" height="20" viewBox="0 0 20 20" fill="none" xmlns="http://www.w3.org/2000/svg">
<path d="M16.7802 6.01942C16.0216 5.32114 15.1422 4.77588 14.1983 4.37933C14.0754 4.56468 13.9353 4.73925 13.7759 4.89873C13.5646 5.10994 13.3276 5.29097 13.0689 5.43537C13.3426 5.52588 13.6056 5.62933 13.8578 5.74787C14.1142 5.86856 14.2134 6.18321 14.0711 6.4289C13.9461 6.64657 13.6724 6.73278 13.4461 6.62502C11.7263 5.81252 9.80603 5.96554 8.96334 6.09269C8.7155 6.12933 8.47843 5.972 8.42026 5.72847V5.72631C8.35343 5.45045 8.53879 5.17675 8.81896 5.13364C8.97198 5.10994 9.15731 5.08623 9.36422 5.06683C9.30172 5.01295 9.24138 4.95692 9.18319 4.89873C8.88578 4.60131 8.65086 4.25433 8.48707 3.8664C8.46983 3.82545 8.45259 3.78235 8.4375 3.7414C8.18103 3.7845 7.92672 3.83838 7.67888 3.90088C6.23491 3.06037 4.50215 3.05821 3.47198 3.1595C3.02371 3.20261 2.75862 3.68106 2.95474 4.08623L3.82759 5.87502C2.85776 6.71985 2.125 7.75433 1.71336 8.90735L0.648707 8.90304C0.290948 8.90088 0 9.19183 0 9.54959V11.9375C0 12.1789 0.133621 12.3987 0.346983 12.5108L1.72845 13.2306C2.30603 14.8233 3.50215 16.1897 5.07974 17.1315V19.2457C5.07974 19.6617 5.4181 20 5.83405 20H7.7694C8.06894 20 8.34052 19.8211 8.46121 19.5474L8.94612 18.4332C9.36422 18.4849 9.78881 18.5108 10.2241 18.5108C10.9095 18.5108 11.5754 18.4462 12.2155 18.3233V19.2457C12.2155 19.6617 12.5539 20 12.9698 20H14.8966C15.1745 20 15.431 19.847 15.5625 19.6013C16.5884 17.6746 17.7026 15.7414 18.5258 13.7242C18.9418 12.7026 19.0926 11.6186 19.0022 10.5604C18.8556 8.85347 18.0797 7.21338 16.7802 6.01942ZM5.20259 10.0302C4.66595 10.0302 4.23276 9.59698 4.23276 9.06037C4.23276 8.52373 4.66595 8.09054 5.20259 8.09054C5.73922 8.09054 6.17241 8.52373 6.17241 9.06037C6.17239 9.597 5.73922 10.0302 5.20259 10.0302Z" fill="#9747FF"/>
<path d="M10.5237 5.02155C10.819 5.13793 11.1422 5.20259 11.4806 5.20259C11.6465 5.20259 11.8082 5.1875 11.9633 5.15733C12.6228 5.03448 13.194 4.66164 13.5754 4.14224C13.8922 3.71121 14.0797 3.17888 14.0797 2.60129C14.0819 1.16379 12.9159 0 11.4806 0C10.0431 0 8.87929 1.16379 8.87929 2.60129C8.87929 2.97414 8.95687 3.32759 9.09911 3.64871C9.37282 4.27371 9.88793 4.7694 10.5237 5.02155Z" fill="#2B9F5A"/>
</svg>
