<svg width="16" height="16" viewBox="0 0 16 16" fill="none" xmlns="http://www.w3.org/2000/svg">
<rect y="7.3" width="16" height="5.22" fill="#FFDA44"/>
<path fill-rule="evenodd" clip-rule="evenodd" d="M8 0H0V8H16V0H8Z" fill="#338AF3"/>
<path fill-rule="evenodd" clip-rule="evenodd" d="M15.9917 11.8394C15.9945 11.835 15.9972 11.8305 16 11.8261H0.00309143C0.0039002 11.8274 0.00470938 11.8287 0.00551895 11.83H0V16H8.00155H15.9917V11.8394Z" fill="#496E2D"/>
<path d="M9.04349 4.68191L10.0206 5.1415L9.50027 6.08775L10.5612 5.88482L10.6956 6.95654L11.4346 6.16829L12.1736 6.95654L12.308 5.88482L13.3689 6.08769L12.8487 5.14147L13.8257 4.68191L12.8486 4.22238L13.3689 3.27613L12.308 3.47907L12.1736 2.40735L11.4346 3.1956L10.6956 2.40735L10.5612 3.47907L9.50024 3.27613L10.0205 4.22241L9.04349 4.68191Z" fill="#FFDA44"/>
</svg>
